G04*
G04 #@! TF.GenerationSoftware,Altium Limited,Altium Designer,20.1.14 (287)*
G04*
G04 Layer_Physical_Order=1*
G04 Layer_Color=255*
%FSLAX25Y25*%
%MOIN*%
G70*
G04*
G04 #@! TF.SameCoordinates,B4928F1D-AEA3-4392-9EB8-D333A03F620F*
G04*
G04*
G04 #@! TF.FilePolarity,Positive*
G04*
G01*
G75*
%ADD16C,0.00800*%
%ADD17C,0.09449*%
%ADD18C,0.09055*%
G36*
X388835Y391451D02*
X394254Y390710D01*
X399607Y389591D01*
X404869Y388099D01*
X410012Y386240D01*
X415013Y384025D01*
X419845Y381465D01*
X424486Y378571D01*
X428912Y375359D01*
X433102Y371844D01*
X437035Y368043D01*
X440691Y363976D01*
X444052Y359662D01*
X447102Y355122D01*
X449826Y350379D01*
X452210Y345457D01*
X454242Y340380D01*
X455913Y335173D01*
X457214Y329860D01*
X458140Y324470D01*
X458684Y319028D01*
X458844Y313562D01*
X458621Y308097D01*
X458014Y302662D01*
X457027Y297283D01*
X455665Y291986D01*
X453934Y286798D01*
X451844Y281744D01*
X449403Y276850D01*
X446625Y272139D01*
X443523Y267635D01*
X443272Y267321D01*
X442749Y267466D01*
X442618Y268458D01*
X442043Y269847D01*
X441128Y271039D01*
X439935Y271954D01*
X438547Y272530D01*
X437056Y272726D01*
X435566Y272530D01*
X434177Y271954D01*
X432985Y271039D01*
X432070Y269847D01*
X431495Y268458D01*
X431298Y266968D01*
X431495Y265478D01*
X432070Y264089D01*
X432985Y262896D01*
X434177Y261981D01*
X435566Y261406D01*
X437056Y261210D01*
X437557Y261276D01*
X437787Y260832D01*
X436410Y259335D01*
X432434Y255579D01*
X428204Y252113D01*
X423741Y248951D01*
X419067Y246111D01*
X416752Y244919D01*
X416553Y244847D01*
X416429Y244772D01*
X416291Y244731D01*
X415605Y244366D01*
X414219Y243664D01*
X412820Y242990D01*
X411407Y242344D01*
X410694Y242036D01*
X410694Y242036D01*
X410646Y242015D01*
X410541Y242003D01*
X410437Y242022D01*
X410343Y242071D01*
X410305Y242107D01*
X410015Y242296D01*
X409898Y242381D01*
X409241Y243021D01*
X381759Y300829D01*
X381787Y301024D01*
X381821Y301253D01*
X381821Y301256D01*
X381821Y301259D01*
X381764Y301485D01*
X381708Y301709D01*
X381706Y301712D01*
X381705Y301715D01*
X372384Y321213D01*
X372103Y321589D01*
X371806Y321765D01*
X343135Y382071D01*
X343163Y382099D01*
X343210Y382124D01*
X343210Y382124D01*
X343896Y382489D01*
X345282Y383191D01*
X346681Y383864D01*
X348094Y384510D01*
X348807Y384819D01*
X348821Y384829D01*
X348838Y384834D01*
X351328Y385964D01*
X356454Y387871D01*
X361701Y389413D01*
X367044Y390583D01*
X372455Y391374D01*
X377909Y391784D01*
X383378Y391810D01*
X388835Y391451D01*
D02*
G37*
%LPC*%
G36*
X374500Y389934D02*
X373342Y389820D01*
X372229Y389482D01*
X371203Y388934D01*
X370304Y388196D01*
X369566Y387297D01*
X369018Y386271D01*
X368680Y385158D01*
X368566Y384000D01*
X368680Y382842D01*
X369018Y381729D01*
X369566Y380703D01*
X370304Y379804D01*
X371203Y379066D01*
X372229Y378518D01*
X373342Y378180D01*
X374500Y378066D01*
X375658Y378180D01*
X376771Y378518D01*
X377797Y379066D01*
X378696Y379804D01*
X379434Y380703D01*
X379982Y381729D01*
X380320Y382842D01*
X380434Y384000D01*
X380320Y385158D01*
X379982Y386271D01*
X379434Y387297D01*
X378696Y388196D01*
X377797Y388934D01*
X376771Y389482D01*
X375658Y389820D01*
X374500Y389934D01*
D02*
G37*
G36*
X437117Y307703D02*
X435627Y307507D01*
X434238Y306932D01*
X433046Y306016D01*
X432131Y304824D01*
X431556Y303435D01*
X431359Y301945D01*
X431556Y300455D01*
X432131Y299066D01*
X433046Y297874D01*
X434238Y296959D01*
X435627Y296383D01*
X437117Y296187D01*
X438607Y296383D01*
X439996Y296959D01*
X441189Y297874D01*
X442104Y299066D01*
X442679Y300455D01*
X442875Y301945D01*
X442679Y303435D01*
X442104Y304824D01*
X441189Y306016D01*
X439996Y306932D01*
X438607Y307507D01*
X437117Y307703D01*
D02*
G37*
G36*
X416027Y284648D02*
X414537Y284452D01*
X413148Y283877D01*
X411956Y282962D01*
X411041Y281769D01*
X410465Y280381D01*
X410269Y278890D01*
X410465Y277400D01*
X411041Y276011D01*
X411956Y274819D01*
X413148Y273904D01*
X414537Y273329D01*
X416027Y273132D01*
X417517Y273329D01*
X418906Y273904D01*
X420098Y274819D01*
X421014Y276011D01*
X421589Y277400D01*
X421785Y278890D01*
X421589Y280381D01*
X421014Y281769D01*
X420098Y282962D01*
X418906Y283877D01*
X417517Y284452D01*
X416027Y284648D01*
D02*
G37*
%LPD*%
D16*
X371357Y322282D02*
X371793Y322219D01*
X370746Y322184D02*
X371212Y322303D01*
X371389Y301164D02*
X371662Y301006D01*
X368097Y304077D02*
X371387Y301166D01*
X368620Y320491D02*
X369923Y321735D01*
X368504Y320330D02*
Y329090D01*
X367915Y304316D02*
X368097Y304077D01*
X367729Y304553D02*
X367915Y304316D01*
X381818Y300118D02*
X381976Y300384D01*
X371933Y300848D02*
X375911Y299470D01*
X381562Y299927D02*
X381812Y300112D01*
X381314Y299741D02*
X381562Y299927D01*
X371662Y301006D02*
X371930Y300848D01*
X368504Y290344D02*
Y303717D01*
X374804Y279436D02*
Y299854D01*
X354720Y324410D02*
X370745D01*
X348875Y327559D02*
X369237D01*
X366598Y317480D02*
X368384Y320208D01*
X357110Y321260D02*
X369426D01*
X361495Y333859D02*
X366221D01*
X359768Y330709D02*
X367729D01*
X355246Y318111D02*
X367011D01*
X365967Y308016D02*
X367729Y304553D01*
X365423Y313442D02*
X366390Y317018D01*
X355228Y305512D02*
X367241D01*
X349906Y302363D02*
X370035D01*
X365375Y312862D02*
X365800Y308588D01*
X365355Y290041D02*
Y335669D01*
X355786Y308662D02*
X365793D01*
X381103Y287361D02*
Y299687D01*
X381004Y299662D02*
X381306Y299737D01*
X382184Y286614D02*
X388838D01*
X380704Y299586D02*
X381004Y299662D01*
X377953Y286998D02*
Y299453D01*
X376516Y299384D02*
X380696Y299585D01*
X379606Y287638D02*
X380968Y287412D01*
X376213Y299429D02*
X376516Y299384D01*
X384324Y280315D02*
X391853D01*
X383450Y283465D02*
X390345D01*
X386071Y274016D02*
X394868D01*
X385197Y277166D02*
X393361D01*
X384252Y280572D02*
Y296193D01*
X377120Y286324D02*
X378329Y287301D01*
X381855Y286951D02*
X382439Y286355D01*
X375911Y299470D02*
X376213Y299429D01*
X360356Y296063D02*
X384314D01*
X369328Y289764D02*
X387330D01*
X359200Y292914D02*
X385822D01*
X368570Y290303D02*
X369695Y289503D01*
X365760Y290213D02*
X367275Y290561D01*
X357115Y289764D02*
X364979D01*
X370519Y286614D02*
X377479D01*
X369936Y283465D02*
X375983D01*
X369352Y280315D02*
X375061D01*
X368769Y277166D02*
X374139D01*
X370290Y288700D02*
X370554Y287908D01*
X353454Y277125D02*
X364929Y289727D01*
X368185Y274016D02*
X373217D01*
X353552Y346457D02*
X360190D01*
X351312Y349607D02*
X358683D01*
X357911Y340158D02*
X363206D01*
X355732Y343307D02*
X361698D01*
X352756Y347607D02*
Y361987D01*
X349607Y350601D02*
Y368566D01*
X355906Y343056D02*
Y355407D01*
X349930Y350480D02*
X350973Y349896D01*
X362205Y286736D02*
Y342248D01*
X351512Y349407D02*
X361209Y335391D01*
X361494Y332918D02*
X361496Y334472D01*
X360090Y337008D02*
X364714D01*
X359055Y338504D02*
Y348828D01*
X352756Y325468D02*
Y332454D01*
X359919Y330797D02*
X360952Y331713D01*
X344555Y371654D02*
X348129D01*
X344238Y374804D02*
X346621D01*
X344941Y367774D02*
X344952Y367468D01*
X344873Y368504D02*
X349636D01*
X344825Y366376D02*
X344922Y366980D01*
X344711Y366071D02*
X344825Y366376D01*
X344639Y365752D02*
X344711Y366071D01*
X347158Y349929D02*
X348463Y350535D01*
X344462Y365355D02*
X351144D01*
X349607Y327165D02*
Y333823D01*
X346457Y328863D02*
Y335192D01*
Y349324D02*
Y375145D01*
X344391Y365194D02*
X344639Y365752D01*
X344202Y364927D02*
X344391Y365194D01*
X358171Y330319D02*
X359003Y330399D01*
X355906Y323687D02*
Y331084D01*
X356501Y319276D02*
X357005Y320561D01*
X356237Y323266D02*
X356941Y321880D01*
X355906Y298843D02*
Y318543D01*
X355161Y318056D02*
X355865Y318505D01*
X355812Y308515D02*
X355898Y307138D01*
X355199Y305466D02*
X355648Y306170D01*
X359419Y297935D02*
X360141Y296759D01*
X359055Y298326D02*
Y330414D01*
X360309Y294955D02*
X360375Y295787D01*
X355031Y286614D02*
X362095D01*
X359055Y283277D02*
Y292696D01*
X356796Y298950D02*
X358327Y298678D01*
X355906Y279818D02*
Y287937D01*
X352756Y311001D02*
Y317707D01*
X349607Y311183D02*
Y317514D01*
X353973Y310642D02*
X355197Y309684D01*
X352756Y297410D02*
Y303910D01*
X349607Y295962D02*
Y302200D01*
X346457Y311366D02*
Y317322D01*
Y294515D02*
Y300489D01*
X352946Y283465D02*
X359227D01*
X350548Y279841D02*
X360046Y294193D01*
X352764Y275342D02*
X353098Y276490D01*
X350862Y280315D02*
X356359D01*
X352756Y275254D02*
Y283177D01*
X346266Y279299D02*
X347382Y278858D01*
X348443Y278815D02*
X349672Y279188D01*
X397941Y253337D02*
X398267Y253318D01*
X397621Y253399D02*
X397941Y253337D01*
X398859Y253164D02*
X399152Y253022D01*
X398267Y253318D02*
X398859Y253164D01*
X397009Y253396D02*
X397621Y253399D01*
X396851Y253364D02*
Y269875D01*
X396222Y253286D02*
X396523Y253346D01*
X395460Y253084D02*
X396064Y253248D01*
X403150Y249683D02*
Y256716D01*
X400000Y252615D02*
Y263296D01*
X399463Y252920D02*
X399995Y252620D01*
X399152Y253022D02*
X399463Y252920D01*
X393701Y252657D02*
Y276454D01*
X390552Y251938D02*
Y283034D01*
X394248Y252782D02*
X395460Y253084D01*
X387402Y269218D02*
Y289613D01*
X382842Y285656D02*
X387442Y269073D01*
X387241Y267717D02*
X397884D01*
X386945Y270866D02*
X396376D01*
X386835Y266810D02*
X387360Y267983D01*
X385042Y265486D02*
X386107Y266039D01*
X374841Y265290D02*
X384301Y265304D01*
X382126Y300635D02*
X409473Y243508D01*
X344412Y261418D02*
X400899D01*
X344884Y258268D02*
X402407D01*
X344567Y255118D02*
X403915D01*
X387402Y248738D02*
Y268165D01*
X384252Y240067D02*
Y265304D01*
X381103Y235936D02*
Y265299D01*
X393029Y252504D02*
X394248Y252782D01*
X391805Y252250D02*
X393029Y252504D01*
X400810Y251969D02*
X405423D01*
X400395Y252339D02*
X400628Y252139D01*
X391191Y252136D02*
X391805Y252250D01*
X390735Y252025D02*
X391032Y252101D01*
X389722Y251597D02*
X390275Y251859D01*
X389461Y251402D02*
X389722Y251597D01*
X406300Y246607D02*
Y250137D01*
X400748Y252029D02*
X409473Y243508D01*
X407260Y245670D02*
X408438D01*
X404035Y248819D02*
X406930D01*
X389175Y251243D02*
X389461Y251402D01*
X388709Y250848D02*
X389175Y251243D01*
X388506Y250592D02*
X388709Y250848D01*
X388271Y250366D02*
X388506Y250592D01*
X368958Y251969D02*
X390617D01*
X387922Y249864D02*
X388271Y250366D01*
X387560Y249157D02*
X387683Y249437D01*
X373287Y245670D02*
X386287D01*
X372143Y248819D02*
X387431D01*
X374431Y242520D02*
X385143D01*
X382769Y235982D02*
X387499Y249005D01*
X375575Y239370D02*
X383999D01*
X382102Y235956D02*
X382769Y235982D01*
X376719Y236221D02*
X382856D01*
X380559Y235925D02*
X382102Y235956D01*
X377473D02*
X379016Y235925D01*
X380559D01*
X371797Y269167D02*
X376586Y285524D01*
X367602Y270866D02*
X372294D01*
X372838Y266087D02*
X374130Y265455D01*
X371755Y268441D02*
X371958Y267262D01*
X367475Y270181D02*
X370610Y287104D01*
X365938Y268414D02*
X366923Y269238D01*
X363745Y268010D02*
X364945Y268040D01*
X362205Y253398D02*
Y268558D01*
X371654Y249861D02*
Y301010D01*
X368504Y252103D02*
Y275738D01*
X377953Y235946D02*
Y265295D01*
X374804Y241494D02*
Y265298D01*
X365355Y252776D02*
Y268110D01*
X361954Y253399D02*
X362565Y253396D01*
X363052Y253346D02*
X363352Y253286D01*
X354491Y272306D02*
X363000Y268172D01*
X353040Y273901D02*
X353924Y272765D01*
X344825Y260282D02*
X344922Y259678D01*
X344711Y260588D02*
X344825Y260282D01*
X344391Y261465D02*
X344639Y260906D01*
X344202Y261732D02*
X344391Y261465D01*
X344639Y260906D02*
X344711Y260588D01*
X355906Y249177D02*
Y271619D01*
X352756Y246101D02*
Y274481D01*
X361633Y253337D02*
X361954Y253399D01*
X359055Y252233D02*
Y270088D01*
X349607Y243025D02*
Y279168D01*
X346457Y243468D02*
Y279224D01*
X344941Y258884D02*
X344952Y259190D01*
X369300Y251859D02*
X369852Y251597D01*
X368543Y252101D02*
X368840Y252025D01*
X370114Y251402D02*
X370399Y251243D01*
X369852Y251597D02*
X370114Y251402D01*
X365327Y252782D02*
X366545Y252504D01*
X364114Y253084D02*
X365327Y252782D01*
X367769Y252250D02*
X368383Y252136D01*
X366545Y252504D02*
X367769Y252250D01*
X371892Y249437D02*
X372015Y249157D01*
X371304Y250366D02*
X371653Y249864D01*
X376805Y235982D02*
X377473Y235956D01*
X372075Y249005D02*
X376805Y235982D01*
X370865Y250848D02*
X371068Y250592D01*
X370399Y251243D02*
X370865Y250848D01*
X371068Y250592D02*
X371304Y250366D01*
X361307Y253318D02*
X361633Y253337D01*
X360716Y253164D02*
X361307Y253318D01*
X363511Y253248D02*
X364114Y253084D01*
X360422Y253022D02*
X360716Y253164D01*
X360112Y252920D02*
X360422Y253022D01*
X359579Y252620D02*
X360112Y252920D01*
X358946Y252139D02*
X359179Y252339D01*
X348914Y242348D02*
X358826Y252029D01*
X344250Y251969D02*
X358764D01*
X348518Y242520D02*
X349090D01*
X348301Y242614D02*
X348914Y242348D01*
X345507Y243925D02*
X346898Y243255D01*
X344131Y244622D02*
X345507Y243925D01*
X346898Y243255D02*
X348301Y242614D01*
X343921Y377953D02*
X345113D01*
X343603Y381107D02*
X344930Y367937D01*
X344051Y364638D02*
X344202Y364927D01*
X341239Y362205D02*
X352652D01*
X343667Y364162D02*
X344051Y364638D01*
X343090Y363616D02*
X343325Y363812D01*
X342458Y363145D02*
X342962Y363515D01*
X341465Y362385D02*
X342458Y363145D01*
X343603Y381107D02*
X371793Y322219D01*
X343307Y345423D02*
Y363798D01*
X340640Y342120D02*
X346583Y349480D01*
X340488Y361606D02*
X341465Y362385D01*
X340158Y340660D02*
Y361332D01*
X339527Y360808D02*
X340488Y361606D01*
X339054Y360399D02*
X339527Y360808D01*
X338683Y360111D02*
X338927Y360296D01*
X337717Y359587D02*
X338267Y359855D01*
X337402Y359504D02*
X337717Y359587D01*
X337100Y359379D02*
X337402Y359504D01*
X336500Y359261D02*
X337100Y359379D01*
X334461Y359417D02*
X334757Y359338D01*
X336173Y359262D02*
X336500Y359261D01*
X319486Y355906D02*
X355667D01*
X317558Y359055D02*
X354159D01*
X323341Y349607D02*
X346717D01*
X321413Y352756D02*
X357175D01*
X337008Y331248D02*
Y359361D01*
X335850Y359219D02*
X336173Y359262D01*
X335240Y359259D02*
X335850Y359219D01*
X341592Y337307D02*
X357376Y330446D01*
X340216Y339202D02*
X340797Y338057D01*
X343307Y330560D02*
Y336561D01*
X343031Y330709D02*
X356769D01*
X340158Y332164D02*
Y339411D01*
X340075Y340254D02*
X340315Y341430D01*
X338664Y332278D02*
X339859Y332231D01*
X336445Y330529D02*
X337332Y331662D01*
X340561Y332040D02*
X355565Y323955D01*
X337216Y316756D02*
X354394Y317808D01*
X343307Y311549D02*
Y317129D01*
X338778Y311811D02*
X365480D01*
X340158Y311731D02*
Y316936D01*
X335129Y317820D02*
X336167Y317063D01*
X337008Y311914D02*
Y316784D01*
X325122Y343307D02*
X341599D01*
X325121Y346457D02*
X344142D01*
X322015Y337008D02*
X342279D01*
X308341Y333859D02*
X349524D01*
X323618Y340158D02*
X340074D01*
X304359Y330709D02*
X336586D01*
X303831Y327559D02*
X335649D01*
X334183Y320612D02*
X336136Y329868D01*
X308715Y324410D02*
X334984D01*
X317560Y314961D02*
X365834D01*
X317558Y311811D02*
X335257D01*
X334207Y319850D02*
X334526Y318693D01*
X313598Y321260D02*
X334320D01*
X317107Y318111D02*
X334832D01*
X325375Y345310D02*
X325393Y344699D01*
X325301Y345629D02*
X325375Y345310D01*
X325339Y344377D02*
X325393Y344699D01*
X325328Y344051D02*
X325339Y344377D01*
X324769Y347263D02*
X324912Y346992D01*
X324410Y347860D02*
Y362796D01*
X325271Y345954D02*
X325301Y345629D01*
X325096Y346539D02*
X325271Y345954D01*
X325189Y343456D02*
X325328Y344051D01*
X324906Y342713D02*
X325032Y342993D01*
X324541Y342016D02*
X324834Y342567D01*
X323976Y340900D02*
X324541Y342016D01*
X323433Y339774D02*
X323976Y340900D01*
X322914Y338637D02*
X323433Y339774D01*
X322666Y338064D02*
X322914Y338637D01*
X321174Y363886D02*
X334305Y359464D01*
X320737Y363381D02*
X321174Y363886D01*
X319761Y362205D02*
X326164D01*
X319751Y362193D02*
X320737Y363381D01*
X318789Y360987D02*
X319751Y362193D01*
X317851Y359762D02*
X318789Y360987D01*
X317456Y359223D02*
X317851Y359762D01*
X322456Y337644D02*
X322596Y337916D01*
X317456Y359223D02*
X324688Y347406D01*
X321813Y336752D02*
X322192Y337232D01*
X321565Y336540D02*
X321813Y336752D01*
X321260Y353007D02*
Y363857D01*
X318111Y358153D02*
Y360101D01*
X321347Y336297D02*
X321565Y336540D01*
X320858Y335931D02*
X321347Y336297D01*
X320563Y335790D02*
X320858Y335931D01*
X320290Y335611D02*
X320563Y335790D01*
X319723Y335382D02*
X320290Y335611D01*
X318953Y335187D02*
X319254Y335244D01*
X316683Y318789D02*
X316887Y318534D01*
X317169Y317992D02*
X317260Y317678D01*
X316887Y318534D02*
X317169Y317992D01*
X317584Y316298D02*
X317592Y315991D01*
X317565Y315204D02*
X317590Y315828D01*
X317540Y312704D02*
X317565Y311455D01*
X317540Y313954D02*
X317565Y315204D01*
X317391Y317380D02*
X317525Y316783D01*
X317260Y317678D02*
X317391Y317380D01*
X317540Y312704D02*
Y313954D01*
X305512Y326475D02*
Y333506D01*
X305043Y333448D02*
X318792Y335161D01*
X304869Y332803D02*
X305043Y333448D01*
X304495Y331306D02*
X304869Y332803D01*
X304152Y329801D02*
X304495Y331306D01*
X303838Y328290D02*
X304152Y329801D01*
X303716Y327634D02*
X303838Y328290D01*
X315494Y320031D02*
X315740Y319849D01*
X303716Y327634D02*
X315360Y320124D01*
X316514Y319069D02*
X316683Y318789D01*
X316103Y319521D02*
X316514Y319069D01*
X314961Y320381D02*
Y334684D01*
X311811Y322413D02*
Y334291D01*
X308662Y324444D02*
Y333899D01*
X339485Y296703D02*
X354609Y304917D01*
X336057Y311969D02*
X353072Y310982D01*
X344106Y299213D02*
X382807D01*
X340355Y291710D02*
X355841Y298827D01*
X343307Y293067D02*
Y298779D01*
X334238Y311384D02*
X335340Y311846D01*
X337144Y296786D02*
X338405Y296538D01*
X335450Y298236D02*
X336229Y297322D01*
X340158Y291577D02*
Y297069D01*
X339023Y290339D02*
X339779Y291265D01*
X340158Y265327D02*
Y286031D01*
X339427Y286870D02*
X345643Y279739D01*
X337008Y267297D02*
Y296842D01*
X333859Y267044D02*
Y304286D01*
X338714Y288904D02*
X339084Y287514D01*
X333859Y311128D02*
Y359614D01*
X332965Y308131D02*
X335107Y298916D01*
X308891Y302363D02*
X334306D01*
X304008Y299213D02*
X335038D01*
X332965Y308860D02*
X333291Y310262D01*
X317166Y308662D02*
X332948D01*
X313775Y305512D02*
X333574D01*
X307428Y292914D02*
X342973D01*
X304333Y296063D02*
X349827D01*
X325079Y283465D02*
X342395D01*
X323563Y286614D02*
X339649D01*
X330709Y265984D02*
Y360675D01*
X327559Y264923D02*
Y361735D01*
X321925Y289764D02*
X338726D01*
X343307Y262861D02*
Y282418D01*
X341096Y264567D02*
X399392D01*
X342458Y263513D02*
X342962Y263144D01*
X341465Y264273D02*
X342458Y263513D01*
X339054Y266260D02*
X339527Y265851D01*
X338683Y266548D02*
X338927Y266363D01*
X340488Y265052D02*
X341465Y264273D01*
X339527Y265851D02*
X340488Y265052D01*
X344051Y262021D02*
X344202Y261732D01*
X343541Y244936D02*
X344930Y258721D01*
X343932Y248819D02*
X355539D01*
X343615Y245670D02*
X352315D01*
X343667Y262497D02*
X344051Y262021D01*
X343091Y263043D02*
X343325Y262846D01*
X343541Y244936D02*
X344131Y244622D01*
X323411Y277166D02*
X353491D01*
X321483Y274016D02*
X352982D01*
X319556Y270866D02*
X357454D01*
X317628Y267717D02*
X371880D01*
X335850Y267439D02*
X336173Y267397D01*
X325155Y280315D02*
X345141D01*
X335240Y267399D02*
X335850Y267439D01*
X337100Y267279D02*
X337402Y267155D01*
X336500Y267397D02*
X337100Y267279D01*
X337717Y267072D02*
X338267Y266804D01*
X337402Y267155D02*
X337717Y267072D01*
X336173Y267397D02*
X336500Y267397D01*
X334461Y267242D02*
X334757Y267320D01*
X321174Y262773D02*
X334305Y267194D01*
X318111Y291582D02*
Y335076D01*
X317565Y311455D02*
X317590Y310830D01*
X317584Y310361D02*
X317592Y310667D01*
X317391Y309279D02*
X317525Y309875D01*
X317260Y308980D02*
X317391Y309279D01*
X317169Y308666D02*
X317260Y308980D01*
X316887Y308124D02*
X317169Y308666D01*
X316683Y307869D02*
X316887Y308124D01*
X324410Y284901D02*
Y341757D01*
X321260Y290426D02*
Y336233D01*
X320858Y290728D02*
X321347Y290361D01*
X320563Y290869D02*
X320858Y290728D01*
X319723Y291276D02*
X320290Y291048D01*
X318953Y291472D02*
X319254Y291414D01*
X320290Y291048D02*
X320563Y290869D01*
X316514Y307590D02*
X316683Y307869D01*
X316103Y307137D02*
X316514Y307590D01*
X315494Y306627D02*
X315740Y306809D01*
X303716Y299025D02*
X315360Y306534D01*
X303838Y298368D02*
X304152Y296858D01*
X303716Y299025D02*
X303838Y298368D01*
X304152Y296858D02*
X304495Y295353D01*
X314961Y291975D02*
Y306277D01*
X311811Y292367D02*
Y304246D01*
X308662Y292760D02*
Y302215D01*
X305043Y293211D02*
X318792Y291497D01*
X305512Y293152D02*
Y300183D01*
X304495Y295353D02*
X304868Y293856D01*
X305043Y293211D01*
X324906Y283945D02*
X325032Y283666D01*
X324540Y284643D02*
X324834Y284092D01*
X325328Y282607D02*
X325339Y282281D01*
X325189Y283203D02*
X325328Y282607D01*
X323433Y286884D02*
X323976Y285758D01*
X322914Y288021D02*
X323433Y286884D01*
X323976Y285758D02*
X324540Y284643D01*
X325375Y281348D02*
X325393Y281959D01*
X325339Y282281D02*
X325393Y281959D01*
X325301Y281030D02*
X325375Y281348D01*
X325271Y280705D02*
X325301Y281030D01*
X325096Y280119D02*
X325271Y280705D01*
X324769Y279395D02*
X324912Y279666D01*
X324410Y263863D02*
Y278798D01*
X322456Y289015D02*
X322596Y288742D01*
X321813Y289906D02*
X322192Y289426D01*
X322666Y288595D02*
X322914Y288021D01*
X317456Y267435D02*
X324688Y279253D01*
X321565Y290118D02*
X321813Y289906D01*
X321347Y290361D02*
X321565Y290118D01*
X317456Y267435D02*
X317851Y266897D01*
X321260Y262802D02*
Y273652D01*
X319670Y264567D02*
X326502D01*
X320737Y263278D02*
X321174Y262773D01*
X319751Y264465D02*
X320737Y263278D01*
X318111Y266558D02*
Y268505D01*
X317851Y266897D02*
X318789Y265672D01*
X319751Y264465D01*
D17*
X374500Y384000D02*
D03*
D18*
X437117Y301945D02*
D03*
X437056Y266968D02*
D03*
X416027Y278890D02*
D03*
M02*
