G04*
G04 #@! TF.GenerationSoftware,Altium Limited,Altium Designer,20.1.14 (287)*
G04*
G04 Layer_Color=8388736*
%FSLAX25Y25*%
%MOIN*%
G70*
G04*
G04 #@! TF.SameCoordinates,B4928F1D-AEA3-4392-9EB8-D333A03F620F*
G04*
G04*
G04 #@! TF.FilePolarity,Positive*
G04*
G01*
G75*
%ADD11C,0.00709*%
%ADD12C,0.01000*%
D11*
X417556Y243075D02*
G03*
X348008Y386661I-36546J70934D01*
G01*
X319338Y365611D02*
G03*
X315366Y360629I60449J-52281D01*
G01*
Y266030D02*
G03*
X319338Y261048I64422J47300D01*
G01*
X371036Y320568D02*
G03*
X380619Y301195I6968J-8609D01*
G01*
X411492Y240194D02*
G03*
X417233Y242959I-31779J73332D01*
G01*
X348008Y386661D02*
G03*
X342268Y383896I31779J-73332D01*
G01*
Y242762D02*
G03*
X348008Y239998I37519J70567D01*
G01*
X321879Y366304D02*
G03*
X319338Y365611I-754J-2239D01*
G01*
X391652Y249662D02*
G03*
X396722Y250819I-11865J63668D01*
G01*
X391652Y249662D02*
G03*
X389864Y248146I433J-2322D01*
G01*
X382973Y233471D02*
G03*
X385099Y235025I-94J2360D01*
G01*
X362853Y250819D02*
G03*
X367922Y249662I16935J62511D01*
G01*
X374475Y235025D02*
G03*
X376601Y233471I2220J806D01*
G01*
X335108Y361849D02*
G03*
X337407Y362302I754J2239D01*
G01*
X318480Y337659D02*
G03*
X320356Y339064I-292J2344D01*
G01*
Y287595D02*
G03*
X318480Y289000I-2168J-939D01*
G01*
X337407Y264357D02*
G03*
X335108Y264809I-1546J-1786D01*
G01*
X319338Y261048D02*
G03*
X321879Y260355I1787J1545D01*
G01*
X304629Y335932D02*
G03*
X302641Y334205I292J-2344D01*
G01*
Y292453D02*
G03*
X304629Y290726I2280J617D01*
G01*
X301223Y298665D02*
G03*
X302641Y292453I78564J14664D01*
G01*
Y334205D02*
G03*
X301223Y327993I77147J-20876D01*
G01*
X341473Y365544D02*
G03*
X337407Y362302I38314J-52215D01*
G01*
X342268Y383896D02*
G03*
X341027Y381574I1109J-2086D01*
G01*
X341473Y365544D02*
G03*
X342426Y367685I-1398J1905D01*
G01*
X337407Y264357D02*
G03*
X341473Y261115I42380J48972D01*
G01*
X322612Y343749D02*
G03*
X320356Y339064I57175J-30420D01*
G01*
Y287595D02*
G03*
X322612Y282909I59431J25735D01*
G01*
X315076Y315929D02*
G03*
X313996Y318009I-2360J95D01*
G01*
Y308649D02*
G03*
X315076Y310729I-1280J1985D01*
G01*
X301223Y327993D02*
G03*
X302265Y325575I2322J-433D01*
G01*
X408903Y240672D02*
G03*
X411492Y240194I1650J1690D01*
G01*
X398990Y250229D02*
G03*
X396722Y250819I-1650J-1690D01*
G01*
X376601Y233471D02*
G03*
X382973Y233471I3186J79858D01*
G01*
X369710Y248146D02*
G03*
X367922Y249662I-2220J-806D01*
G01*
X362853Y250819D02*
G03*
X360584Y250229I-618J-2280D01*
G01*
X348008Y239998D02*
G03*
X350598Y240475I939J2167D01*
G01*
X342426Y258973D02*
G03*
X341473Y261115I-2350J237D01*
G01*
X341027Y245085D02*
G03*
X342268Y242762I2350J-237D01*
G01*
X322612Y343749D02*
G03*
X322542Y346092I-2085J1110D01*
G01*
Y280567D02*
G03*
X322612Y282909I-2015J1233D01*
G01*
X315366Y360629D02*
G03*
X315255Y357998I1904J-1398D01*
G01*
X315076Y315929D02*
G03*
X315076Y310729I64712J-2600D01*
G01*
X315255Y268661D02*
G03*
X315366Y266030I2015J-1233D01*
G01*
X302265Y301084D02*
G03*
X301223Y298665I1280J-1985D01*
G01*
X315255Y357998D02*
X322542Y346092D01*
X371298Y320693D02*
X380567Y301304D01*
X315255Y268661D02*
X322542Y280567D01*
X304629Y335932D02*
X318480Y337659D01*
X304629Y290726D02*
X318480Y289000D01*
X321879Y366304D02*
X335108Y361849D01*
X398990Y250229D02*
X408976Y240475D01*
X350598D02*
X360584Y250229D01*
X321879Y260355D02*
X335108Y264809D01*
X302265Y325575D02*
X313996Y318009D01*
X302265Y301084D02*
X313996Y308649D01*
X385099Y235025D02*
X389864Y248146D01*
X369710D02*
X374475Y235025D01*
X341027Y381574D02*
X342426Y367685D01*
X341027Y245085D02*
X342426Y258973D01*
D12*
X357560Y332052D02*
G03*
X359884Y334474I708J1646D01*
G01*
X335964Y310360D02*
G03*
X334536Y308495I-41J-1448D01*
G01*
X369003Y286923D02*
G03*
X366121Y288642I-1763J319D01*
G01*
X335760Y320279D02*
G03*
X337117Y318365I1885J-102D01*
G01*
X381477Y284789D02*
G03*
X378133Y285070I-1725J-486D01*
G01*
X363704Y269621D02*
G03*
X365890Y270475I555J1804D01*
G01*
X353457Y306051D02*
G03*
X352979Y309373I-862J1571D01*
G01*
X350186Y348489D02*
G03*
X347837Y348467I-1166J-859D01*
G01*
X341895Y341107D02*
G03*
X342235Y338785I1633J-946D01*
G01*
X384299Y266916D02*
G03*
X385889Y268642I-292J1865D01*
G01*
X373344Y268714D02*
G03*
X374839Y266902I1402J-366D01*
G01*
X353830Y319323D02*
G03*
X354800Y322536I-117J1788D01*
G01*
X358496Y294654D02*
G03*
X356514Y297362I-1498J983D01*
G01*
X354646Y276040D02*
G03*
X355196Y273756I1100J-943D01*
G01*
X346858Y280799D02*
G03*
X349204Y280730I1216J1444D01*
G01*
X339796Y330621D02*
G03*
X337714Y329535I-649J-1295D01*
G01*
X336677Y299281D02*
G03*
X338716Y298120I1751J704D01*
G01*
X341028Y290246D02*
G03*
X340642Y287929I644J-1298D01*
G01*
X341044Y290316D02*
X356515Y297362D01*
X339862Y330651D02*
X354800Y322535D01*
X342164Y338804D02*
X357565Y332063D01*
X341895Y341107D02*
X347837Y348467D01*
X338657Y298076D02*
X353451Y306062D01*
X336011Y310415D02*
X352979Y309372D01*
X337046Y318350D02*
X353829Y319335D01*
X374839Y266902D02*
X384299Y266916D01*
X335760Y320279D02*
X337714Y329535D01*
X381466Y284786D02*
X385919Y268575D01*
X350258Y348486D02*
X359883Y334473D01*
X365887Y270402D02*
X368991Y286925D01*
X355196Y273756D02*
X363704Y269621D01*
X354633Y276111D02*
X366121Y288641D01*
X349173Y280664D02*
X358486Y294660D01*
X373301Y268772D02*
X378134Y285070D01*
X334536Y308495D02*
X336677Y299281D01*
X340642Y287929D02*
X346858Y280799D01*
X359883Y334473D02*
X359884Y334474D01*
X378132Y285071D02*
X378134Y285070D01*
X352979Y309374D02*
X352979Y309372D01*
X366120Y288642D02*
X366121Y288641D01*
X354800Y322535D02*
X354800Y322536D01*
X356514Y297363D02*
X356515Y297362D01*
M02*
