G04*
G04 #@! TF.GenerationSoftware,Altium Limited,Altium Designer,20.1.14 (287)*
G04*
G04 Layer_Color=8388736*
%FSLAX25Y25*%
%MOIN*%
G70*
G04*
G04 #@! TF.SameCoordinates,B4928F1D-AEA3-4392-9EB8-D333A03F620F*
G04*
G04*
G04 #@! TF.FilePolarity,Negative*
G04*
G01*
G75*
%ADD10C,0.00591*%
%ADD11C,0.00709*%
%ADD12C,0.01000*%
%ADD13C,0.00787*%
%ADD14C,0.10236*%
%ADD15C,0.09843*%
G36*
X359945Y375372D02*
X363426Y375351D01*
X365598Y375016D01*
X366948Y373678D01*
X367291Y371676D01*
X366778Y370164D01*
X364956Y368905D01*
X361327Y368751D01*
X361327Y364739D01*
X359523Y364732D01*
X359169Y365085D01*
X359169Y375018D01*
X359522Y375372D01*
X359945Y375372D01*
D02*
G37*
G36*
X374805Y374957D02*
X376448Y374146D01*
X377082Y373556D01*
X377085Y373056D01*
X376033Y372057D01*
X373409Y373422D01*
X371120Y372926D01*
X369779Y371109D01*
X369681Y369687D01*
X370577Y367709D01*
X372190Y366930D01*
X373785Y366842D01*
X375321Y367556D01*
X376023Y368168D01*
X377014Y367135D01*
X376953Y366639D01*
X374673Y365218D01*
X372989Y364962D01*
X370455Y365549D01*
X369219Y366407D01*
X368341Y367624D01*
X367741Y370145D01*
X367893Y371430D01*
X369420Y374047D01*
X372322Y375190D01*
X374805Y374957D01*
D02*
G37*
G36*
X383464Y375422D02*
X385295Y374449D01*
X385721Y372637D01*
X384589Y370870D01*
X384716Y370477D01*
X386003Y369593D01*
X386298Y368257D01*
X386005Y366332D01*
X384373Y365055D01*
X378204Y364729D01*
X377841Y365073D01*
X377841Y375514D01*
X381660D01*
X383464Y375422D01*
D02*
G37*
G36*
X401194Y375144D02*
X398654Y365110D01*
X395579Y364730D01*
X394044Y370643D01*
X392166Y364730D01*
X389100Y365058D01*
X386548Y375144D01*
X386855Y375539D01*
X389264Y375539D01*
X390881Y368801D01*
X392569Y375539D01*
X395262Y375539D01*
X397069Y368687D01*
X398558Y375539D01*
X400886Y375539D01*
X401194Y375144D01*
D02*
G37*
G36*
X407942Y371774D02*
X408333Y365190D01*
X406250Y364741D01*
X405563Y365402D01*
X404394Y364718D01*
X402719Y364603D01*
X401136Y365662D01*
X400779Y366576D01*
X401288Y368786D01*
X402503Y369562D01*
X404359Y369940D01*
X405758Y370401D01*
X404970Y371136D01*
X403296Y371239D01*
X401872Y370847D01*
X401466Y371139D01*
X401402Y372354D01*
X401737Y372725D01*
X406122Y372938D01*
X407942Y371774D01*
D02*
G37*
G36*
X416667Y372472D02*
X412704Y361739D01*
X410416D01*
X410133Y362151D01*
X411210Y364918D01*
X408371Y372471D01*
X408656Y372882D01*
X410887D01*
X412602Y367762D01*
X414208Y372882D01*
X416381Y372882D01*
X416667Y372472D01*
D02*
G37*
%LPC*%
G36*
X361319Y373559D02*
X361319Y370543D01*
X363872Y370646D01*
X364957Y371429D01*
X364896Y372800D01*
X364137Y373413D01*
X361319Y373559D01*
D02*
G37*
G36*
X380638Y373530D02*
X380543Y371239D01*
X382151Y371329D01*
X382664Y371614D01*
X382944Y372724D01*
X382669Y373192D01*
X381825Y373520D01*
X380638Y373530D01*
D02*
G37*
G36*
X380786Y369393D02*
X380609Y366685D01*
X382141Y366699D01*
X383130Y366989D01*
X383600Y367713D01*
X383566Y368659D01*
X382533Y369329D01*
X380786Y369393D01*
D02*
G37*
G36*
X405806Y368560D02*
X403425Y368369D01*
X403314Y367043D01*
X403804Y366411D01*
X404835Y366365D01*
X405804Y366856D01*
X405806Y368560D01*
D02*
G37*
%LPD*%
D10*
X403757Y305560D02*
X408047Y301270D01*
X430746Y348156D02*
X434431Y344471D01*
X389356Y308047D02*
X392956Y304446D01*
X392920Y279420D02*
X392956Y302708D01*
X434431Y328574D02*
Y344471D01*
X408047Y289897D02*
Y301270D01*
X408214Y247435D02*
Y268038D01*
X430746Y348156D02*
Y351997D01*
X403757Y305560D02*
Y318355D01*
X389356Y308047D02*
Y318368D01*
X392956Y302708D02*
Y304446D01*
D11*
X410935Y363147D02*
X417810Y362359D01*
X406832Y362981D02*
X417416Y362080D01*
X375690Y361712D02*
X380400Y362267D01*
X373775Y362693D02*
X381552Y363443D01*
X412704Y361739D02*
X416819Y372882D01*
X390754Y368295D02*
X392569Y375539D01*
X398558Y364730D02*
X401294Y375539D01*
X374126Y365058D02*
X375221Y365378D01*
X376324Y366017D01*
X359169Y364730D02*
X359169Y375372D01*
X367191Y373187D02*
X367329Y372099D01*
X366704Y374170D02*
X367191Y373187D01*
X414208Y372882D02*
X416819Y372882D01*
X383464Y375422D02*
X384614Y375043D01*
X381660Y375514D02*
X383464Y375422D01*
X398558Y375539D02*
X401294Y375539D01*
X382975Y366895D02*
X383285Y367083D01*
X383514Y367364D01*
X383685Y368061D02*
X383692Y368064D01*
X383514Y367364D02*
X383685Y368061D01*
X383649Y368472D02*
X383692Y368064D01*
X407792Y372018D02*
X408092Y371530D01*
X406818Y372719D02*
X407371Y372414D01*
X407792Y372018D01*
X382873Y369276D02*
X383483Y368847D01*
X383649Y368472D01*
X383102Y364752D02*
X384021Y364918D01*
X380400Y362267D02*
X385266Y362723D01*
X389183Y364730D02*
X392166D01*
X395552Y363278D02*
X401590Y363271D01*
X405806Y364741D02*
X408333Y364741D01*
X404230Y363706D02*
X410935Y363147D01*
X390310Y363065D02*
X395552Y363278D01*
X389354Y363910D02*
X397200Y363980D01*
X404230Y363706D01*
X381552Y363443D02*
X389354Y363910D01*
X375383Y374766D02*
X376448Y374146D01*
X374226Y375148D02*
X375383Y374766D01*
X359169Y375372D02*
X362616Y375372D01*
X367253Y371253D02*
X367329Y372099D01*
X366973Y370451D02*
X367253Y371253D01*
X367741Y370145D02*
X367900Y371493D01*
X367833Y369052D02*
X368110Y368065D01*
X367741Y370145D02*
X367833Y369052D01*
X375321Y367556D02*
X376023Y368168D01*
X374525Y367072D02*
X375321Y367556D01*
X374597Y373114D02*
X375335Y372674D01*
X376033Y372057D01*
X359169Y364730D02*
X361327Y364739D01*
X358327Y360345D02*
X366031Y361660D01*
X373775Y362693D01*
X366657Y360359D02*
X375690Y361712D01*
X358002Y358778D02*
X366657Y360359D01*
X408333Y370274D02*
X408333Y364741D01*
X408216Y372882D02*
X411210Y364918D01*
X400864Y366082D02*
X401408Y365241D01*
X402232Y364691D01*
X405798Y365599D02*
X405806Y365605D01*
X405806Y364741D01*
X405329Y365205D02*
X405798Y365599D01*
X404775Y364857D02*
X405329Y365205D01*
X392166Y364730D02*
X393844Y371414D01*
X395262Y375539D02*
X396981Y368285D01*
X398558Y375539D01*
X393844Y371414D02*
X395579Y364730D01*
X384021Y364918D02*
X384725Y365192D01*
X385362Y365599D02*
X385829Y366057D01*
X384725Y365192D02*
X385362Y365599D01*
X385481Y374209D02*
X385702Y373625D01*
X385769Y373003D01*
X386448Y375539D02*
X389183Y364730D01*
X389264Y375539D02*
X390754Y368295D01*
X376448Y374146D02*
X377350Y373307D01*
X376033Y372057D02*
X377350Y373307D01*
X380543Y373530D02*
X380733Y373530D01*
X381825Y373520D02*
X382460Y373391D01*
X382877Y372993D01*
X377841Y375514D02*
X377841Y364709D01*
X380733Y373530D02*
X381825Y373520D01*
X380543Y371239D02*
X380543Y373530D01*
X369219Y366407D02*
X370009Y365775D01*
X371120Y372926D02*
X371704Y373231D01*
X372337Y373413D01*
X369247Y373799D02*
X370333Y374587D01*
X373818Y373378D02*
X374597Y373114D01*
X368412Y372749D02*
X369247Y373799D01*
X370009Y365775D02*
X370901Y365323D01*
X371894Y365052D01*
X373000Y373466D02*
X373818Y373378D01*
X372337Y373413D02*
X373000Y373466D01*
X361319Y373559D02*
X362356Y373566D01*
X363902Y373495D01*
X361319Y373559D02*
X361319Y370543D01*
X361327Y364739D02*
X361327Y368751D01*
X364373Y373332D02*
X364764Y373024D01*
X363902Y373495D02*
X364373Y373332D01*
X417416Y362080D02*
X417810Y362359D01*
X408216Y372882D02*
X410887Y372882D01*
X408092Y371530D02*
X408273Y370948D01*
X408333Y370274D01*
X410887Y372882D02*
X412602Y367762D01*
X414208Y372882D01*
X409973Y361739D02*
X411210Y364918D01*
X409973Y361739D02*
X412704D01*
X400694Y367070D02*
X400864Y366082D01*
X403353Y366801D02*
X403585Y366497D01*
X400694Y367070D02*
X400770Y367826D01*
X401058Y368528D01*
X401517Y369044D01*
X403823Y371320D02*
X404583Y371276D01*
X402907Y369710D02*
X403750Y369878D01*
X402769Y371157D02*
X403823Y371320D01*
X403275Y367284D02*
X403460Y367910D01*
X403979Y368262D01*
X403275Y367284D02*
X403353Y366801D01*
X401517Y369044D02*
X402100Y369414D01*
X402907Y369710D01*
X401591Y370741D02*
X402769Y371157D01*
X401383Y370741D02*
X401591Y370741D01*
X402602Y372966D02*
X404302Y373114D01*
X405812Y370130D02*
X405812Y370087D01*
X405704Y370672D02*
X405812Y370130D01*
X405806Y366855D02*
X405806Y368560D01*
X405802Y366857D02*
X405806Y366855D01*
X405177Y366441D02*
X405802Y366857D01*
X404494Y366289D02*
X405177Y366441D01*
X401383Y372707D02*
X402602Y372966D01*
X401383Y372707D02*
X401383Y370741D01*
X403750Y369878D02*
X405812Y370087D01*
X403979Y368262D02*
X404764Y368447D01*
X405806Y368560D01*
X405314Y371064D02*
X405704Y370672D01*
X404583Y371276D02*
X405314Y371064D01*
X403585Y366497D02*
X404024Y366325D01*
X404494Y366289D01*
X406122Y372938D02*
X406818Y372719D01*
X404302Y373114D02*
X406122Y372938D01*
X402232Y364691D02*
X403206Y364516D01*
X404014Y364579D02*
X404775Y364857D01*
X403206Y364516D02*
X404014Y364579D01*
X401590Y363271D02*
X406832Y362981D01*
X392569Y375539D02*
X395262Y375539D01*
X395579Y364730D02*
X398558D01*
X385108Y374689D02*
X385481Y374209D01*
X384614Y375043D02*
X385108Y374689D01*
X386448Y375539D02*
X389264Y375539D01*
X385829Y366057D02*
X386181Y366607D01*
X386323Y367278D01*
X384281Y370628D02*
X385151Y370325D01*
X384281Y370628D02*
X384281Y370685D01*
X384897Y371055D01*
X385373Y371595D01*
X385151Y370325D02*
X385885Y369768D01*
X386121Y369419D02*
X386249Y369018D01*
X385885Y369768D02*
X386121Y369419D01*
X385373Y371595D02*
X385673Y372270D01*
X385769Y373003D01*
X386312Y368043D02*
Y368051D01*
X386323Y367278D01*
X386249Y369018D02*
X386312Y368043D01*
X385266Y362723D02*
X390310Y363065D01*
X377841Y375514D02*
X381660D01*
X376023Y368168D02*
X377289Y366849D01*
X376324Y366017D02*
X377289Y366849D01*
X380535Y366685D02*
X380683Y366685D01*
X382141Y366699D02*
X382975Y366895D01*
X380683Y366685D02*
X382141Y366699D01*
X380535Y366685D02*
X380535Y369393D01*
X382877Y372993D02*
X383010Y372455D01*
X383012Y372447D01*
X382889Y371822D02*
X383012Y372447D01*
X382439Y371405D02*
X382889Y371822D01*
X381862Y371253D02*
X382439Y371405D01*
X382193Y369382D02*
X382873Y369276D01*
X380535Y369393D02*
X381037Y369393D01*
X382193Y369382D01*
X380543Y371239D02*
X380887D01*
X381862Y371253D01*
X382169Y364709D02*
X383102Y364752D01*
X377841Y364709D02*
X382169Y364709D01*
X370333Y374587D02*
X371629Y375104D01*
X373014Y375276D01*
X374226Y375148D01*
X369633Y370137D02*
X369728Y369237D01*
X368110Y368065D02*
X368572Y367183D01*
X369219Y366407D01*
X370050Y368393D02*
X370577Y367709D01*
X369728Y369237D02*
X370050Y368393D01*
X369633Y370137D02*
X369686Y370795D01*
X369871Y371422D01*
X370180Y371999D01*
X373014Y366772D02*
X373785Y366842D01*
X372117Y366877D02*
X373014Y366772D01*
X373785Y366842D02*
X374525Y367072D01*
X367900Y371493D02*
X368412Y372749D01*
X370180Y371999D02*
X370604Y372505D01*
X371120Y372926D01*
X370577Y367709D02*
X371275Y367201D01*
X372117Y366877D01*
X372989Y364962D02*
X374126Y365058D01*
X371894Y365052D02*
X372989Y364962D01*
X362616Y375372D02*
X364235Y375331D01*
X366026Y374821D02*
X366704Y374170D01*
X364235Y375331D02*
X365171Y375212D01*
X366026Y374821D01*
X361327Y368751D02*
X362727Y368751D01*
X361319Y370543D02*
X362491D01*
X365538Y369100D02*
X366069Y369409D01*
X366583Y369876D01*
X364864Y371230D02*
X365049Y371628D01*
X364568Y370917D02*
X364864Y371230D01*
X366583Y369876D02*
X366973Y370451D01*
X364956Y368905D02*
X365538Y369100D01*
X365027Y372576D02*
X365106Y372064D01*
X365049Y371628D02*
X365106Y372064D01*
X364192Y370707D02*
X364568Y370917D01*
X364764Y373024D02*
X365027Y372576D01*
X363553Y370584D02*
X364192Y370707D01*
X362727Y368751D02*
X364956Y368905D01*
X362491Y370543D02*
X363553Y370584D01*
X358002Y358778D02*
X358327Y360345D01*
D12*
X450513Y339253D02*
G03*
X450513Y339253I-1282J0D01*
G01*
X433681Y360233D02*
G03*
X433681Y360233I-1282J0D01*
G01*
X394068Y338000D02*
G03*
X394068Y338000I-1282J0D01*
G01*
X377518Y337746D02*
G03*
X377518Y337746I-1282J0D01*
G01*
X403541Y323752D02*
G03*
X403541Y323752I-1282J0D01*
G01*
X389128Y326566D02*
G03*
X389128Y326566I-1282J0D01*
G01*
X422486Y337296D02*
G03*
X422486Y337296I-1282J0D01*
G01*
X412018Y322775D02*
X420839Y331596D01*
X445810Y331515D02*
X449022Y334727D01*
X391355Y298352D02*
Y303501D01*
X396179Y318863D02*
X402157Y312886D01*
X391269Y285062D02*
Y285143D01*
X391341Y293352D02*
X391346Y296171D01*
X387771Y307085D02*
X391355Y303501D01*
X391291Y287331D02*
Y287847D01*
X391318Y290022D02*
Y291328D01*
X372434Y326579D02*
X376304Y330449D01*
X445810Y323439D02*
Y331515D01*
X435635Y328778D02*
Y345374D01*
X412964Y257450D02*
Y266579D01*
X406568Y288626D02*
Y300568D01*
X406781Y269665D02*
X406781Y262327D01*
X396179Y318863D02*
Y333553D01*
X432191Y348819D02*
Y358448D01*
X420839Y331596D02*
Y335822D01*
X412018Y306827D02*
Y322775D01*
X412011Y290937D02*
Y296761D01*
X412962Y252157D02*
X412967Y254976D01*
X402157Y304979D02*
Y322477D01*
Y304979D02*
X406568Y300568D01*
X393205Y336527D02*
X396179Y333553D01*
X387771Y307085D02*
Y324931D01*
X376304Y330449D02*
Y336326D01*
X372434Y322500D02*
Y326579D01*
X449022Y334727D02*
Y337624D01*
X432191Y358448D02*
X432348Y358605D01*
X432191Y348819D02*
X435635Y345374D01*
X412939Y248827D02*
Y250133D01*
X412912Y246136D02*
Y246652D01*
X412890Y243867D02*
Y243948D01*
X406693Y257461D02*
X406699Y260280D01*
X406670Y254131D02*
Y255436D01*
X406643Y251439D02*
Y251956D01*
X406621Y249170D02*
Y249251D01*
D13*
X430686Y354733D02*
G03*
X430638Y352174I-110J-1278D01*
G01*
X403851Y318445D02*
G03*
X403802Y321004I62J1281D01*
G01*
X389463Y318335D02*
G03*
X389415Y320893I62J1281D01*
G01*
D14*
X374500Y384000D02*
D03*
D15*
X437117Y301945D02*
D03*
X437056Y266968D02*
D03*
X416027Y278890D02*
D03*
M02*
