G04*
G04 #@! TF.GenerationSoftware,Altium Limited,Altium Designer,20.1.14 (287)*
G04*
G04 Layer_Color=16711935*
%FSLAX25Y25*%
%MOIN*%
G70*
G04*
G04 #@! TF.SameCoordinates,B4928F1D-AEA3-4392-9EB8-D333A03F620F*
G04*
G04*
G04 #@! TF.FilePolarity,Negative*
G04*
G01*
G75*
%ADD14C,0.10236*%
%ADD15C,0.09843*%
%ADD28R,0.04528X0.03937*%
%ADD29R,0.03937X0.04528*%
%ADD30R,0.05118X0.03150*%
%ADD31R,0.04724X0.03543*%
%ADD32R,0.03543X0.04724*%
%ADD33R,0.13386X0.13386*%
G36*
X445436Y305486D02*
X445487Y305476D01*
X445536Y305459D01*
X445582Y305436D01*
X445625Y305408D01*
X445664Y305374D01*
X445698Y305335D01*
X445727Y305292D01*
X445749Y305246D01*
X445766Y305197D01*
X445776Y305146D01*
X445779Y305095D01*
Y298796D01*
X445776Y298744D01*
X445766Y298693D01*
X445749Y298644D01*
X445727Y298598D01*
X445698Y298555D01*
X445664Y298517D01*
X445625Y298482D01*
X445582Y298454D01*
X445536Y298431D01*
X445487Y298414D01*
X445436Y298404D01*
X445385Y298401D01*
X442235D01*
X442184Y298404D01*
X442133Y298414D01*
X442084Y298431D01*
X442038Y298454D01*
X441995Y298482D01*
X441956Y298517D01*
X441922Y298555D01*
X441894Y298598D01*
X441871Y298644D01*
X441854Y298693D01*
X441844Y298744D01*
X441841Y298796D01*
Y299222D01*
X441840Y299226D01*
X441841Y299234D01*
X441840Y299242D01*
Y299242D01*
X441840Y299248D01*
X441840Y299255D01*
X441841Y299266D01*
X441842Y299278D01*
X441843Y299286D01*
X441843Y299293D01*
X441845Y299300D01*
X441845Y299306D01*
X441848Y299317D01*
X441850Y299329D01*
X441852Y299336D01*
X441853Y299344D01*
X441855Y299350D01*
X441857Y299356D01*
X441861Y299367D01*
X441864Y299378D01*
X441867Y299385D01*
X441870Y299393D01*
X441873Y299399D01*
X441875Y299405D01*
X442150Y300012D01*
X442467Y301292D01*
Y302598D01*
X442150Y303878D01*
X441875Y304485D01*
X441870Y304499D01*
X441864Y304512D01*
X441861Y304523D01*
X441857Y304534D01*
X441854Y304548D01*
X441850Y304561D01*
X441848Y304573D01*
X441845Y304584D01*
X441844Y304598D01*
X441842Y304612D01*
X441841Y304624D01*
X441840Y304635D01*
X441841Y304650D01*
X441840Y304664D01*
X441841Y304668D01*
Y305095D01*
X441844Y305146D01*
X441854Y305197D01*
X441871Y305246D01*
X441894Y305292D01*
X441922Y305335D01*
X441956Y305374D01*
X441995Y305408D01*
X442038Y305436D01*
X442084Y305459D01*
X442133Y305476D01*
X442184Y305486D01*
X442235Y305489D01*
X445385D01*
X445436Y305486D01*
D02*
G37*
G36*
X432051D02*
X432101Y305476D01*
X432150Y305459D01*
X432196Y305436D01*
X432239Y305408D01*
X432278Y305374D01*
X432312Y305335D01*
X432341Y305292D01*
X432364Y305246D01*
X432380Y305197D01*
X432390Y305146D01*
X432394Y305095D01*
Y304667D01*
X432394Y304662D01*
X432394Y304649D01*
X432394Y304635D01*
X432393Y304623D01*
X432393Y304610D01*
X432390Y304597D01*
X432389Y304584D01*
X432386Y304572D01*
X432384Y304559D01*
X432380Y304547D01*
X432377Y304534D01*
X432373Y304522D01*
X432369Y304510D01*
X432364Y304498D01*
X432359Y304485D01*
X432084Y303878D01*
X431767Y302598D01*
Y301292D01*
X432084Y300012D01*
X432359Y299405D01*
X432362Y299399D01*
X432364Y299393D01*
X432367Y299385D01*
X432370Y299378D01*
X432373Y299367D01*
X432377Y299356D01*
X432379Y299350D01*
X432381Y299344D01*
X432382Y299337D01*
X432385Y299329D01*
X432386Y299317D01*
X432389Y299306D01*
X432390Y299300D01*
X432391Y299293D01*
X432392Y299286D01*
X432393Y299278D01*
X432393Y299266D01*
X432394Y299255D01*
X432394Y299248D01*
X432394Y299242D01*
X432394Y299234D01*
X432394Y299226D01*
X432394Y299222D01*
Y298796D01*
X432390Y298744D01*
X432380Y298693D01*
X432364Y298644D01*
X432341Y298598D01*
X432312Y298555D01*
X432278Y298517D01*
X432239Y298482D01*
X432196Y298454D01*
X432150Y298431D01*
X432101Y298414D01*
X432051Y298404D01*
X431999Y298401D01*
X428850D01*
X428798Y298404D01*
X428747Y298414D01*
X428698Y298431D01*
X428652Y298454D01*
X428609Y298482D01*
X428571Y298517D01*
X428537Y298555D01*
X428508Y298598D01*
X428485Y298644D01*
X428468Y298693D01*
X428458Y298744D01*
X428455Y298796D01*
Y305095D01*
X428458Y305146D01*
X428468Y305197D01*
X428485Y305246D01*
X428508Y305292D01*
X428537Y305335D01*
X428571Y305374D01*
X428609Y305408D01*
X428652Y305436D01*
X428698Y305459D01*
X428747Y305476D01*
X428798Y305486D01*
X428850Y305489D01*
X431999D01*
X432051Y305486D01*
D02*
G37*
G36*
X424346Y282431D02*
X424397Y282421D01*
X424446Y282404D01*
X424492Y282382D01*
X424535Y282353D01*
X424574Y282319D01*
X424608Y282280D01*
X424637Y282237D01*
X424659Y282191D01*
X424676Y282142D01*
X424686Y282091D01*
X424689Y282040D01*
Y275741D01*
X424686Y275689D01*
X424676Y275639D01*
X424659Y275590D01*
X424637Y275543D01*
X424608Y275501D01*
X424574Y275462D01*
X424535Y275428D01*
X424492Y275399D01*
X424446Y275376D01*
X424397Y275360D01*
X424346Y275350D01*
X424295Y275346D01*
X421145D01*
X421094Y275350D01*
X421043Y275360D01*
X420994Y275376D01*
X420948Y275399D01*
X420905Y275428D01*
X420866Y275462D01*
X420832Y275501D01*
X420803Y275543D01*
X420781Y275590D01*
X420764Y275639D01*
X420754Y275689D01*
X420751Y275741D01*
Y276167D01*
X420750Y276172D01*
X420750Y276180D01*
X420750Y276187D01*
Y276187D01*
X420750Y276194D01*
X420750Y276200D01*
X420751Y276212D01*
X420751Y276223D01*
X420753Y276231D01*
X420753Y276239D01*
X420754Y276245D01*
X420755Y276252D01*
X420758Y276263D01*
X420760Y276274D01*
X420762Y276282D01*
X420763Y276289D01*
X420765Y276296D01*
X420767Y276302D01*
X420771Y276312D01*
X420774Y276324D01*
X420777Y276331D01*
X420780Y276338D01*
X420783Y276344D01*
X420785Y276350D01*
X421060Y276957D01*
X421377Y278237D01*
Y279544D01*
X421060Y280823D01*
X420785Y281431D01*
X420780Y281444D01*
X420774Y281457D01*
X420771Y281468D01*
X420767Y281479D01*
X420764Y281493D01*
X420760Y281507D01*
X420758Y281518D01*
X420755Y281529D01*
X420754Y281543D01*
X420751Y281558D01*
X420751Y281569D01*
X420750Y281581D01*
X420751Y281595D01*
X420750Y281609D01*
X420751Y281614D01*
Y282040D01*
X420754Y282091D01*
X420764Y282142D01*
X420781Y282191D01*
X420803Y282237D01*
X420832Y282280D01*
X420866Y282319D01*
X420905Y282353D01*
X420948Y282382D01*
X420994Y282404D01*
X421043Y282421D01*
X421094Y282431D01*
X421145Y282435D01*
X424295D01*
X424346Y282431D01*
D02*
G37*
G36*
X410960D02*
X411011Y282421D01*
X411060Y282404D01*
X411106Y282382D01*
X411149Y282353D01*
X411188Y282319D01*
X411222Y282280D01*
X411251Y282237D01*
X411273Y282191D01*
X411290Y282142D01*
X411300Y282091D01*
X411304Y282040D01*
Y281612D01*
X411304Y281607D01*
X411304Y281594D01*
X411304Y281581D01*
X411303Y281568D01*
X411302Y281556D01*
X411300Y281542D01*
X411299Y281529D01*
X411296Y281517D01*
X411294Y281505D01*
X411290Y281492D01*
X411287Y281479D01*
X411283Y281467D01*
X411279Y281455D01*
X411274Y281443D01*
X411269Y281431D01*
X410994Y280823D01*
X410677Y279544D01*
Y278237D01*
X410994Y276957D01*
X411269Y276350D01*
X411271Y276344D01*
X411274Y276338D01*
X411277Y276331D01*
X411280Y276324D01*
X411283Y276312D01*
X411287Y276302D01*
X411289Y276296D01*
X411291Y276289D01*
X411292Y276282D01*
X411295Y276274D01*
X411296Y276263D01*
X411299Y276252D01*
X411300Y276245D01*
X411301Y276239D01*
X411301Y276231D01*
X411303Y276223D01*
X411303Y276212D01*
X411304Y276200D01*
X411304Y276194D01*
X411304Y276187D01*
X411304Y276180D01*
X411304Y276172D01*
X411304Y276167D01*
Y275741D01*
X411300Y275689D01*
X411290Y275639D01*
X411273Y275590D01*
X411251Y275543D01*
X411222Y275501D01*
X411188Y275462D01*
X411149Y275428D01*
X411106Y275399D01*
X411060Y275376D01*
X411011Y275360D01*
X410960Y275350D01*
X410909Y275346D01*
X407759D01*
X407708Y275350D01*
X407657Y275360D01*
X407608Y275376D01*
X407562Y275399D01*
X407519Y275428D01*
X407480Y275462D01*
X407446Y275501D01*
X407418Y275543D01*
X407395Y275590D01*
X407378Y275639D01*
X407368Y275689D01*
X407365Y275741D01*
Y282040D01*
X407368Y282091D01*
X407378Y282142D01*
X407395Y282191D01*
X407418Y282237D01*
X407446Y282280D01*
X407480Y282319D01*
X407519Y282353D01*
X407562Y282382D01*
X407608Y282404D01*
X407657Y282421D01*
X407708Y282431D01*
X407759Y282435D01*
X410909D01*
X410960Y282431D01*
D02*
G37*
G36*
X440727Y275432D02*
X440778Y275422D01*
X440827Y275406D01*
X440873Y275383D01*
X440916Y275354D01*
X440954Y275320D01*
X440955Y275320D01*
X445409Y270866D01*
X445443Y270827D01*
X445471Y270784D01*
X445494Y270738D01*
X445511Y270689D01*
X445521Y270638D01*
X445524Y270587D01*
X445521Y270535D01*
X445511Y270485D01*
X445494Y270436D01*
X445471Y270390D01*
X445443Y270347D01*
X445409Y270308D01*
X443182Y268081D01*
X443161Y268063D01*
X443143Y268047D01*
X443100Y268018D01*
X443054Y267995D01*
X443005Y267979D01*
X442954Y267969D01*
X442903Y267965D01*
X442851Y267969D01*
X442801Y267979D01*
X442752Y267995D01*
X442705Y268018D01*
X442662Y268047D01*
X442624Y268081D01*
X442623Y268081D01*
X442323Y268381D01*
X442321Y268383D01*
X442310Y268394D01*
X442298Y268405D01*
X442292Y268413D01*
X442285Y268420D01*
X442276Y268433D01*
X442266Y268445D01*
X442261Y268453D01*
X442255Y268461D01*
X442247Y268475D01*
X442238Y268489D01*
X442234Y268498D01*
X442230Y268506D01*
X442224Y268521D01*
X442217Y268536D01*
X441982Y269160D01*
X441301Y270289D01*
X440378Y271213D01*
X439248Y271894D01*
X438624Y272129D01*
X438619Y272131D01*
X438613Y272133D01*
X438606Y272137D01*
X438599Y272139D01*
X438588Y272145D01*
X438578Y272150D01*
X438572Y272153D01*
X438566Y272156D01*
X438560Y272160D01*
X438553Y272164D01*
X438544Y272171D01*
X438534Y272177D01*
X438529Y272181D01*
X438523Y272185D01*
X438518Y272190D01*
X438512Y272194D01*
X438503Y272202D01*
X438494Y272210D01*
X438489Y272215D01*
X438484Y272219D01*
X438480Y272225D01*
X438474Y272230D01*
X438471Y272233D01*
X438169Y272535D01*
X438135Y272574D01*
X438107Y272617D01*
X438084Y272663D01*
X438067Y272712D01*
X438057Y272763D01*
X438054Y272814D01*
X438057Y272866D01*
X438067Y272916D01*
X438084Y272965D01*
X438107Y273011D01*
X438135Y273054D01*
X438169Y273093D01*
X440396Y275320D01*
X440417Y275338D01*
X440435Y275354D01*
X440478Y275383D01*
X440524Y275406D01*
X440573Y275422D01*
X440624Y275432D01*
X440675Y275436D01*
X440727Y275432D01*
D02*
G37*
G36*
X431262Y265967D02*
X431312Y265957D01*
X431361Y265940D01*
X431407Y265918D01*
X431450Y265889D01*
X431489Y265855D01*
X431791Y265553D01*
X431795Y265550D01*
X431800Y265545D01*
X431806Y265540D01*
X431810Y265535D01*
X431814Y265531D01*
X431822Y265522D01*
X431830Y265513D01*
X431835Y265507D01*
X431840Y265501D01*
X431843Y265496D01*
X431847Y265491D01*
X431853Y265481D01*
X431860Y265471D01*
X431864Y265464D01*
X431868Y265458D01*
X431871Y265452D01*
X431874Y265447D01*
X431879Y265436D01*
X431885Y265426D01*
X431888Y265419D01*
X431891Y265412D01*
X431893Y265406D01*
X431896Y265400D01*
X432131Y264776D01*
X432811Y263647D01*
X433735Y262723D01*
X434865Y262042D01*
X435488Y261807D01*
X435502Y261801D01*
X435515Y261796D01*
X435525Y261790D01*
X435535Y261786D01*
X435548Y261778D01*
X435561Y261771D01*
X435570Y261765D01*
X435579Y261759D01*
X435591Y261749D01*
X435602Y261741D01*
X435610Y261733D01*
X435619Y261726D01*
X435629Y261715D01*
X435640Y261705D01*
X435642Y261702D01*
X435944Y261401D01*
X435978Y261362D01*
X436006Y261319D01*
X436029Y261273D01*
X436046Y261224D01*
X436056Y261173D01*
X436059Y261122D01*
X436056Y261070D01*
X436046Y261020D01*
X436029Y260971D01*
X436006Y260925D01*
X435978Y260882D01*
X435944Y260843D01*
X433716Y258616D01*
X433678Y258582D01*
X433635Y258553D01*
X433588Y258530D01*
X433539Y258513D01*
X433489Y258504D01*
X433437Y258500D01*
X433386Y258504D01*
X433335Y258513D01*
X433286Y258530D01*
X433255Y258545D01*
X433240Y258553D01*
X433197Y258582D01*
X433158Y258616D01*
X428704Y263070D01*
X428670Y263109D01*
X428642Y263152D01*
X428619Y263198D01*
X428602Y263247D01*
X428592Y263297D01*
X428589Y263349D01*
X428592Y263400D01*
X428602Y263451D01*
X428619Y263500D01*
X428642Y263546D01*
X428670Y263589D01*
X428704Y263628D01*
X430931Y265855D01*
X430970Y265889D01*
X431013Y265918D01*
X431059Y265940D01*
X431108Y265957D01*
X431159Y265967D01*
X431210Y265970D01*
X431262Y265967D01*
D02*
G37*
D14*
X374500Y384000D02*
D03*
D15*
X437117Y301945D02*
D03*
X437056Y266968D02*
D03*
X416027Y278890D02*
D03*
D28*
X425500Y315941D02*
D03*
Y321059D02*
D03*
D29*
X393441Y310000D02*
D03*
X398559D02*
D03*
X415941D02*
D03*
X421059D02*
D03*
X405441Y304000D02*
D03*
X410559D02*
D03*
D30*
X420331Y320500D02*
D03*
X411669Y324240D02*
D03*
Y316760D02*
D03*
X394669Y316260D02*
D03*
Y323740D02*
D03*
X403331Y320000D02*
D03*
D31*
X388500Y315449D02*
D03*
Y321551D02*
D03*
D32*
X404949Y310000D02*
D03*
X411051D02*
D03*
D33*
X370807Y352500D02*
D03*
X402500D02*
D03*
X434193D02*
D03*
M02*
